<svg width="37" height="33" viewBox="0 0 37 33" fill="none" xmlns="http://www.w3.org/2000/svg">
<path d="M28.751 0.00170898C31.3079 -0.040983 33.6283 0.748949 35.3867 2.7605L35.5547 2.95972L35.5977 3.01147L35.625 3.07202C36.7515 5.58115 37.3127 9.37911 35.1484 12.4773C33.1332 15.3618 28.8743 17.4691 21.0049 17.4695C22.601 18.5369 24.3256 20.027 25.4795 21.7957C26.2669 23.0028 26.8035 24.3636 26.8291 25.8201C26.8547 27.2853 26.3615 28.8013 25.1699 30.3064L25.1592 30.3201L25.1465 30.3337C23.9546 31.6337 21.7144 32.7997 18.8623 32.1453C16.1399 31.5203 12.9594 29.2592 9.63477 24.0994C8.89242 25.2249 7.79854 26.6959 6.51465 28.073C4.96612 29.7339 3.09 31.3203 1.18652 31.9548L0 32.3503L0.586914 31.2458C1.41313 29.6906 2.64788 26.914 3.64551 23.6736C4.64412 20.4299 5.39428 16.7541 5.27832 13.3884L5.27051 13.1648L5.43262 13.0095C8.96742 9.62411 14.6964 5.04374 20.3994 2.32104C23.2493 0.960547 26.1313 0.0455087 28.751 0.00170898ZM27.3242 4.8103C26.073 4.58316 24.5767 4.89853 23.0586 5.47632C20.011 6.63635 16.6571 8.94258 14.502 10.7058L13.9707 11.1404L14.6143 11.3787C21.177 13.8162 25.1666 13.7892 27.4795 12.6287C29.8369 11.4455 30.3355 9.15574 30.0859 7.44995L30.0811 7.42163L30.0732 7.39429L29.9824 7.11792C29.7555 6.49245 29.4287 5.99241 29.0117 5.61401C28.5344 5.1811 27.9576 4.92536 27.3242 4.8103ZM5.55957 3.28101C7.52709 3.28101 9.12207 4.87599 9.12207 6.84351C9.12197 8.81094 7.52702 10.406 5.55957 10.406C3.59222 10.4059 1.99717 8.81086 1.99707 6.84351C1.99707 4.87606 3.59216 3.28113 5.55957 3.28101Z" fill="#B24C6D"/>
</svg>
